<?xml version="1.0" encoding="iso-8859-1"?>
<!-- Generator: Adobe Illustrator 19.0.0, SVG Export Plug-In . SVG Version: 6.00 Build 0)  -->
<svg version="1.1" id="Capa_1" xmlns="http://www.w3.org/2000/svg" xmlns:xlink="http://www.w3.org/1999/xlink" x="0px" y="0px"
	 viewBox="0 0 508 508" style="enable-background:new 0 0 508 508;" xml:space="preserve">
<g>
	<g>
		<path d="M393.4,81.9h-41v-8.2c0-13.6-11-24.6-24.6-24.6h-17C306.9,21.4,282.9,0,254.1,0s-52.8,21.4-56.8,49.2h-17
			c-13.6,0-24.6,11-24.6,24.6V82h-41c-22.6,0-41,18.4-41,41v344c0,22.6,18.4,41,41,41h278.6c22.6,0,41-18.4,41-41V122.9
			C434.4,100.3,416,81.9,393.4,81.9z M172.2,73.7c0-4.5,3.7-8.2,8.2-8.2h32.7v-8.2c0-22.6,18.4-41,41-41c22.6,0,41,18.4,41,41v8.2
			h32.8c4.5,0,8.2,3.7,8.2,8.2v32.8c0,4.5-3.7,8.2-8.2,8.2H180.4c-4.5,0-8.2-3.7-8.2-8.2V73.7z M418.1,467H418
			c0,13.6-11,24.6-24.6,24.6H114.8c-13.6,0-24.6-11-24.6-24.6V122.9c0-13.6,11-24.6,24.6-24.6h41v8.2c0,13.6,11,24.6,24.6,24.6
			h147.5c13.6,0,24.6-11,24.6-24.6v-8.2h41c13.6,0,24.6,11,24.6,24.6V467z"/>
	</g>
</g>
<g>
	<g>
		<path d="M106.6,147.5v98.3h98.3v-98.3H106.6z M188.5,229.4H123v-65.5h65.5V229.4z"/>
	</g>
</g>
<g>
	<g>
		<path d="M106.6,376.9v98.3h98.3v-98.3H106.6z M188.5,458.8H123v-65.5h65.5V458.8z"/>
	</g>
</g>
<g>
	<g>
		<path d="M106.6,262.2v98.3h98.3v-98.3H106.6z M188.5,344.1H123v-65.5h65.5V344.1z"/>
	</g>
</g>
<g>
	<g>
		<polygon points="272.3,166.9 245.2,200.7 235.3,190.8 223.8,202.5 246.6,225.1 285.1,177.2 		"/>
	</g>
</g>
<g>
	<g>
		<polygon points="272.3,281.6 245.2,315.4 235.3,305.5 223.8,317.2 246.6,339.8 285.1,291.9 		"/>
	</g>
</g>
<g>
	<g>
		<polygon points="272.3,396.4 245.2,430.1 235.3,420.2 223.8,431.9 246.6,454.5 285.1,406.6 		"/>
	</g>
</g>
<g>
	<g>
		<path d="M385.3,344.2v57.3h-0.1h-16.4V219L336,164.4L303.3,219v207.1c0,18.1,14.7,32.8,32.8,32.8c18.1,0,32.8-14.7,32.8-32.8v-8.2
			h32.8v-73.7H385.3z M336,196.1l10.1,16.9h-20.2L336,196.1z M352.4,426.1c0,9-7.4,16.4-16.4,16.4s-16.4-7.4-16.4-16.4v-8.2h32.8
			V426.1z M352.4,401.5h-32.8V229.4h32.8V401.5z"/>
	</g>
</g>
<g>
	<g>
		<rect x="245.9" y="81.9" width="16.4" height="16.4"/>
	</g>
</g>
<g>
	<g>
		<rect x="278.7" y="81.9" width="16.4" height="16.4"/>
	</g>
</g>
<g>
	<g>
		<rect x="213.1" y="81.9" width="16.4" height="16.4"/>
	</g>
</g>
<g>
</g>
<g>
</g>
<g>
</g>
<g>
</g>
<g>
</g>
<g>
</g>
<g>
</g>
<g>
</g>
<g>
</g>
<g>
</g>
<g>
</g>
<g>
</g>
<g>
</g>
<g>
</g>
<g>
</g>
</svg>
