<svg id="Line" height="22" viewBox="0 0 64 64" width="22" xmlns="http://www.w3.org/2000/svg"><path d="m60 31h-8a3 3 0 0 0 -3 3v26a3 3 0 0 0 3 3h8a3 3 0 0 0 3-3v-26a3 3 0 0 0 -3-3zm-2 27h-4a1 1 0 0 1 0-2h4a1 1 0 0 1 0 2zm-3-5v-12a1 1 0 0 1 2 0v12a1 1 0 0 1 -2 0zm3-15h-4a1 1 0 0 1 0-2h4a1 1 0 0 1 0 2z" fill="#c4a2fc"/><path d="m44 19h-8a3 3 0 0 0 -3 3v38a3 3 0 0 0 3 3h8a3 3 0 0 0 3-3v-38a3 3 0 0 0 -3-3zm-2 40h-4a1 1 0 0 1 0-2h4a1 1 0 0 1 0 2zm0-4h-4a1 1 0 0 1 0-2h4a1 1 0 0 1 0 2zm-3-5v-18a1 1 0 0 1 2 0v18a1 1 0 0 1 -2 0zm3-21h-4a1 1 0 0 1 0-2h4a1 1 0 0 1 0 2zm0-5h-4a1 1 0 0 1 0-2h4a1 1 0 0 1 0 2z" fill="#c4a2fc"/><path d="m28 25h-8a3 3 0 0 0 -3 3v32a3 3 0 0 0 3 3h8a3 3 0 0 0 3-3v-32a3 3 0 0 0 -3-3zm-7 9a1 1 0 0 1 2 0v6a1 1 0 0 1 -2 0zm0 14a1 1 0 0 1 2 0v6a1 1 0 0 1 -2 0zm5 11h-4a1 1 0 0 1 0-2h4a1 1 0 0 1 0 2zm1-5a1 1 0 0 1 -2 0v-6a1 1 0 0 1 2 0zm-1-9h-4a1 1 0 0 1 0-2h4a1 1 0 0 1 0 2zm1-5a1 1 0 0 1 -2 0v-6a1 1 0 0 1 2 0zm-1-9h-4a1 1 0 0 1 0-2h4a1 1 0 0 1 0 2z" fill="#c4a2fc"/><g fill="#151a6a"><path d="m8 11h12a1 1 0 0 0 0-2h-12a1 1 0 0 0 0 2z"/><path d="m8 16h12a1 1 0 0 0 0-2h-12a1 1 0 0 0 0 2z"/><path d="m8 21h12a1 1 0 0 0 0-2h-12a1 1 0 0 0 0 2z"/><path d="m8 26h12a1 1 0 0 0 0-2h-12a1 1 0 0 0 0 2z"/><path d="m21 30a1 1 0 0 0 -1-1h-12a1 1 0 0 0 0 2h12a1 1 0 0 0 1-1z"/><path d="m1.105 38.447 3 6a1 1 0 0 0 .895.553h42a1 1 0 0 0 .9-.553l3-6a2.912 2.912 0 0 0 .1-.447v-36a1 1 0 0 0 -1-1h-18a7 7 0 0 0 -6 3.4 7 7 0 0 0 -6-3.4h-18a1 1 0 0 0 -1 1v36a2.912 2.912 0 0 0 .105.447zm2.513.553h16.382a5.009 5.009 0 0 1 4.9 4h-19.282zm42.764 4h-19.282a5.009 5.009 0 0 1 4.9-4h16.382zm-14.382-40h17v34h-17a6.973 6.973 0 0 0 -5 2.117v-31.117a5.006 5.006 0 0 1 5-5zm-29 0h17a5.006 5.006 0 0 1 5 5v31.117a6.973 6.973 0 0 0 -5-2.117h-17z"/><path d="m32 11h12a1 1 0 0 0 0-2h-12a1 1 0 0 0 0 2z"/><path d="m32 16h12a1 1 0 0 0 0-2h-12a1 1 0 0 0 0 2z"/><path d="m32 21h12a1 1 0 0 0 0-2h-12a1 1 0 0 0 0 2z"/><path d="m32 26h12a1 1 0 0 0 0-2h-12a1 1 0 0 0 0 2z"/><path d="m32 31h12a1 1 0 0 0 0-2h-12a1 1 0 0 0 0 2z"/></g></svg>