<svg id="Line" height="22" viewBox="0 0 64 64"
     width="22" xmlns="http://www.w3.org/2000/svg">
    <path d="m53 38h1.949a14 14 0 0 0 -12.949-12.949v1.949a1
    1 0 0 1 -2 0v-1.949a14 14 0 0 0 -12.949 12.949h1.949a1 1
    0 0 1 0 2h-1.949a14 14 0 0 0 12.949 12.949v-1.949a1 1 0
    0 1 2 0v1.949a14 14 0 0 0 12.949-12.949h-1.949a1 1 0 0 1
    0-2zm-5 2h-2.1a5.016 5.016 0 0 1 -3.9 3.9v2.1a1 1 0 0 1
    -2 0v-2.1a5.016 5.016 0 0 1 -3.9-3.9h-2.1a1 1 0 0 1 0
    -2h2.1a5.016 5.016 0 0 1 3.9-3.9v-2.1a1 1 0 0 1 2
    0v2.1a5.016 5.016 0 0 1 3.9 3.9h2.1a1 1 0 0 1 0 2z"
          fill="#c4a2fc"/>
    <path d="m41 17a22 22 0 1 0 22 22 22.025 22.025 0 0 0
    -22-22zm18 23h-2.051a16 16 0 0 1 -14.949 14.949v2.051a1
    1 0 0 1 -2 0v-2.051a16 16 0 0 1 -14.949-14.949h-1.051a1
    1 0 0 1 0-2h1.051a16 16 0 0 1 14.949-14.949v-2.051a1 1
    0 0 1 2 0v2.051a16 16 0 0 1 14.949 14.949h2.051a1 1 0 0
    1 0 2z" fill="#c4a2fc"/>
    <circle cx="41" cy="39" fill="#c4a2fc" r="3"/>
    <g fill="#151a6a">
        <path d="m49 6h-6v-2a1 1 0 0 0 -2 0v2h-29v-2a1 1 0
        0 0 -2 0v2h-6a3 3 0 0 0 -3 3v38a3 3 0 0 0 3 3h45a3
         3 0 0 0 3-3v-38a3 3 0 0 0 -3-3zm-45 2h6v2a1 1 0 0
         0 2 0v-2h29v2a1 1 0 0 0 2 0v-2h6a1 1 0 0 1 1
         1v6h-47v-6a1 1 0 0 1 1-1zm45 40h-45a1 1 0 0 1
         -1-1v-30h47v30a1 1 0 0 1 -1 1z"/>
        <path d="m17.5 24h-6a1 1 0 0 0 0 2h6a1 1 0 0 0
        0-2z"/>
        <path d="m29.5 24h-6a1 1 0 0 0 0 2h6a1 1 0 0 0
        0-2z"/>
        <path d="m35.5 26h6a1 1 0 0 0 0-2h-6a1 1 0 0 0 0
         2z"/><path d="m17.5 31h-6a1 1 0 0 0 0 2h6a1 1 0 0
         0 0-2z"/><path d="m17.5 38h-6a1 1 0 0 0 0 2h6a1 1 0
          0 0 0-2z"/><path d="m29.5 31h-6a1 1 0 0 0 0 2h6a1
          1 0 0 0 0-2z"/><path d="m29.5 38h-6a1 1 0 0 0 0
          2h6a1 1 0 0 0 0-2z"/><path d="m35.5 33h6a1 1 0 0
          0 0-2h-6a1 1 0 0 0 0 2z"/><path d="m43.793
          35.293-5.293 5.293-3.293-3.293a1 1 0 0 0
          -1.414 1.414l4 4a1 1 0 0 0 1.414 0l6-6a1 1
          0 0 0 -1.414-1.414z"/></g></svg>