<svg id="Line" height="22" viewBox="0 0 64 64" width="22" xmlns="http://www.w3.org/2000/svg"><path d="m60 25.5h-38a3 3 0 0 0 -3 3v24a3 3 0 0 0 3 3h24.7l8.748 5.832a1 1 0 0 0 1.552-.832v-5h3a3 3 0 0 0 3-3v-24a3 3 0 0 0 -3-3zm-8 23h-22a1 1 0 1 1 0-2h22a1 1 0 0 1 0 2zm0-6h-22a1 1 0 1 1 0-2h22a1 1 0 0 1 0 2zm0-6h-22a1 1 0 1 1 0-2h22a1 1 0 0 1 0 2z" fill="#c4a2fc"/><g fill="#151a6a"><path d="m48 2.5h-32a3 3 0 0 0 -3 3v3h-6a3 3 0 0 0 -3 3v27h-2a1 1 0 0 0 -1 1 7.009 7.009 0 0 0 7 7h36a7.009 7.009 0 0 0 7-7 1 1 0 0 0 -1-1h-2v-8a3 3 0 0 0 3-3v-22a3 3 0 0 0 -3-3zm-4 42h-36a5.008 5.008 0 0 1 -4.9-4h45.8a5.008 5.008 0 0 1 -4.9 4zm2-6h-40v-27a1 1 0 0 1 1-1h6v17a3 3 0 0 0 3 3h6v5a1 1 0 0 0 1.555.832l8.745-5.832h13.7zm3-11a1 1 0 0 1 -1 1h-16a1.006 1.006 0 0 0 -.555.168l-7.445 4.964v-4.132a1 1 0 0 0 -1-1h-7a1 1 0 0 1 -1-1v-22a1 1 0 0 1 1-1h32a1 1 0 0 1 1 1z"/><path d="m44 9.5h-24a1 1 0 0 0 0 2h24a1 1 0 0 0 0-2z"/><path d="m44 15.5h-24a1 1 0 0 0 0 2h24a1 1 0 0 0 0-2z"/><path d="m38 21.5h-18a1 1 0 0 0 0 2h18a1 1 0 0 0 0-2z"/></g></svg>